<svg width="50" height="50" viewBox="0 0 50 50" fill="none" xmlns="http://www.w3.org/2000/svg">
<g clip-path="url(#clip0)">
<path d="M24.6437 24.0851C27.9526 24.0851 30.8178 22.8984 33.1589 20.5569C35.5 18.2159 36.6867 15.3514 36.6867 12.0422C36.6867 8.7341 35.5 5.86927 33.1585 3.52744C30.817 1.18675 27.9522 0 24.6437 0C21.3345 0 18.47 1.18675 16.1289 3.52782C13.7878 5.86889 12.6007 8.73371 12.6007 12.0422C12.6007 15.3514 13.7878 18.2163 16.1293 20.5573C18.4708 22.898 21.3356 24.0851 24.6437 24.0851V24.0851Z" fill="black"/>
<path d="M45.7157 38.4474C45.6482 37.4731 45.5116 36.4104 45.3106 35.2881C45.1077 34.1574 44.8463 33.0885 44.5335 32.1116C44.2104 31.1019 43.771 30.1047 43.2278 29.1491C42.664 28.1573 42.0017 27.2937 41.2586 26.583C40.4816 25.8395 39.5302 25.2417 38.43 24.8057C37.3337 24.372 36.1187 24.1523 34.819 24.1523C34.3086 24.1523 33.815 24.3617 32.8617 24.9823C32.275 25.365 31.5887 25.8075 30.8228 26.2969C30.1678 26.7142 29.2805 27.1052 28.1845 27.4592C27.1152 27.8052 26.0296 27.9807 24.958 27.9807C23.8865 27.9807 22.8012 27.8052 21.7308 27.4592C20.636 27.1056 19.7487 26.7146 19.0945 26.2973C18.3357 25.8124 17.6491 25.3699 17.0536 24.982C16.1015 24.3613 15.6075 24.1519 15.097 24.1519C13.797 24.1519 12.5824 24.372 11.4864 24.8061C10.387 25.2414 9.43527 25.8391 8.65746 26.5834C7.91473 27.2944 7.25212 28.1577 6.68907 29.1491C6.14624 30.1047 5.70679 31.1015 5.3833 32.112C5.07088 33.0889 4.80957 34.1574 4.60663 35.2881C4.40559 36.4088 4.26903 37.472 4.20151 38.4485C4.13513 39.4053 4.10156 40.3982 4.10156 41.4011C4.10156 44.0111 4.93126 46.1241 6.56738 47.6824C8.18329 49.2201 10.3214 50.0002 12.9215 50.0002H36.9968C39.5969 50.0002 41.7343 49.2204 43.3506 47.6824C44.9871 46.1252 45.8168 44.0119 45.8168 41.4007C45.8164 40.3933 45.7825 39.3995 45.7157 38.4474V38.4474Z" fill="black"/>
</g>
<defs>
<clipPath id="clip0">
<rect width="50" height="50" fill="white"/>
</clipPath>
</defs>
</svg>
